<svg width="24" height="24" viewBox="0 0 24 24" fill="none" xmlns="http://www.w3.org/2000/svg">
<path d="M11.5 18V18.5H12C13.7239 18.5 15.3772 17.8152 16.5962 16.5962C17.8152 15.3772 18.5 13.7239 18.5 12C18.5 10.2761 17.8152 8.6228 16.5962 7.40381C15.3772 6.18482 13.7239 5.5 12 5.5H11.5V6V18ZM19.6464 14.9564L19.5 15.1029V15.31V19.5H15.31H15.1029L14.9564 19.6464L12 22.6029L9.04356 19.6464L8.89711 19.5H8.69H4.5V15.31V15.1029L4.35356 14.9564L1.39711 12L4.35356 9.04356L4.5 8.89711V8.69V4.5H8.69H8.89711L9.04356 4.35356L12 1.39711L14.9564 4.35356L15.1029 4.5H15.31H19.5V8.69V8.89711L19.6464 9.04356L22.6029 12L19.6464 14.9564Z" fill="white" stroke="black"/>
</svg>
